# xmcd
#
# Track frame offsets:
#	150
#	7317
#	20961
#	37013
#	40735
#	50890
#	53204
#	59259
#	68380
#	80651
#	84222
#	104791
#	107559
#	113809
#	129347
#	142851
#	146434
#	158643
#	162397
#	169615
#	185449
#	199020
#	204226
#	214820
#
# Disc length: 2897 seconds
#
# Revision: 1
# Processed by: cddbd v1.5PL3 Copyright (c) Steve Scherf et al.
# Submitted via: CDmax 2.0
#
DISCID=520b4f18
DTITLE=Hank Williams - 1949 Health and Happiness Shows
DYEAR=1949
DGENRE=Country
TTITLE0=Happy Rovin' Cowboy (Theme)
TTITLE1=Mind Your Own Business
TTITLE2=Wedding Bells
TTITLE3=Cotton Eyed Joe
TTITLE4=I've Just Told Mama Good-Bye
TTITLE5=Sally Goodin'
TTITLE6=Happy Rovin' Cowboy (Theme)
TTITLE7=I Can't Get You Off of My Mind
TTITLE8=I'm So Lonesome I Could Cry
TTITLE9=Fisherman's Hornpipe
TTITLE10=Thy Burdens Are Greater Than Mine
TTITLE11=Sally Goodin'
TTITLE12=Happy Rovin' Cowboy (Theme)
TTITLE13=A Mansion on the Hill
TTITLE14=There'll Be No Teardrops Tonight
TTITLE15=Wagner
TTITLE16=The Prodigal Son
TTITLE17=Sally Goodin'
TTITLE18=Happy Rovin' Cowboy (Theme)
TTITLE19=Pan American
TTITLE20=Lovesick Blues
TTITLE21=Arkansas Traveler
TTITLE22=I Saw the Light
TTITLE23=Sally Goodin'
EXTD=
EXTT0=
EXTT1=
EXTT2=
EXTT3=
EXTT4=
EXTT5=
EXTT6=
EXTT7=
EXTT8=
EXTT9=
EXTT10=
EXTT11=
EXTT12=
EXTT13=
EXTT14=
EXTT15=
EXTT16=
EXTT17=
EXTT18=
EXTT19=
EXTT20=
EXTT21=
EXTT22=
EXTT23=
PLAYORDER=
